<svg width="6" height="9" viewBox="0 0 6 9" fill="none" xmlns="http://www.w3.org/2000/svg">
<path d="M4.9351 4.93492L4.93509 4.93493L1.92522 7.9447C1.92521 7.94471 1.9252 7.94471 1.9252 7.94472C1.68493 8.18507 1.29536 8.18511 1.05515 7.94472L4.9351 4.93492ZM4.9351 4.93492C5.05514 4.81485 5.11527 4.65721 5.11527 4.49993C5.11527 4.34274 5.05525 4.18519 4.93519 4.06507L4.93517 4.06505M4.9351 4.93492L4.93517 4.06505M1.05516 7.07477C0.81496 7.31494 0.814951 7.70447 1.05511 7.94468L1.05521 1.05523C0.815017 1.29544 0.815048 1.68494 1.05521 1.9252L1.05523 1.92522L3.63005 4.49995L1.05516 7.07477ZM1.05516 7.07477L1.14354 7.16316M1.05516 7.07477L1.05515 7.07477L1.14354 7.16316M1.14354 7.16316L3.71845 4.58834L1.14354 7.85633C0.952153 7.66494 0.952153 7.35453 1.14354 7.16316ZM4.93517 4.06505L1.92527 1.05521C1.92527 1.05521 1.92527 1.05521 1.92527 1.05521C1.68501 0.814946 1.29545 0.814914 1.05523 1.05521L4.93517 4.06505Z" fill="#2F80ED" stroke="#2F80ED" stroke-width="0.25"/>
</svg>
