<svg width="63" height="11" viewBox="0 0 63 11" fill="none" xmlns="http://www.w3.org/2000/svg">
<path d="M6.986 10V5.24C6.986 3.854 6.258 3.07 4.802 3.07C3.738 3.07 2.87 3.63 2.422 4.162V3.238H0.952V10H2.422V5.282C2.758 4.82 3.402 4.372 4.158 4.372C4.984 4.372 5.516 4.722 5.516 5.772V10H6.986ZM9.62336 2.412C10.1274 2.412 10.5334 2.006 10.5334 1.502C10.5334 0.998 10.1274 0.591999 9.62336 0.591999C9.13336 0.591999 8.71336 0.998 8.71336 1.502C8.71336 2.006 9.13336 2.412 9.62336 2.412ZM10.3654 10V3.238H8.89536V10H10.3654ZM15.3523 10.168C16.6683 10.168 17.4663 9.608 17.9423 8.964L16.9763 8.068C16.5983 8.586 16.0803 8.866 15.4223 8.866C14.1903 8.866 13.3783 7.928 13.3783 6.612C13.3783 5.296 14.1903 4.372 15.4223 4.372C16.0803 4.372 16.5983 4.638 16.9763 5.17L17.9423 4.274C17.4663 3.63 16.6683 3.07 15.3523 3.07C13.2943 3.07 11.8523 4.568 11.8523 6.612C11.8523 8.67 13.2943 10.168 15.3523 10.168ZM25.5593 10L22.6893 6.304L25.5033 3.238H23.6833L20.7013 6.5V0.661999H19.2313V10H20.7013V8.18L21.6393 7.214L23.7113 10H25.5593ZM29.5841 10.168C31.7541 10.168 33.0701 8.558 33.0701 6.612C33.0701 4.68 31.7541 3.07 29.5841 3.07C27.4421 3.07 26.1121 4.68 26.1121 6.612C26.1121 8.558 27.4421 10.168 29.5841 10.168ZM29.5841 8.866C28.3381 8.866 27.6381 7.816 27.6381 6.612C27.6381 5.422 28.3381 4.372 29.5841 4.372C30.8441 4.372 31.5441 5.422 31.5441 6.612C31.5441 7.816 30.8441 8.866 29.5841 8.866ZM37.6375 10.168C38.9535 10.168 39.7515 9.608 40.2275 8.964L39.2615 8.068C38.8835 8.586 38.3655 8.866 37.7075 8.866C36.4755 8.866 35.6635 7.928 35.6635 6.612C35.6635 5.296 36.4755 4.372 37.7075 4.372C38.3655 4.372 38.8835 4.638 39.2615 5.17L40.2275 4.274C39.7515 3.63 38.9535 3.07 37.6375 3.07C35.5795 3.07 34.1375 4.568 34.1375 6.612C34.1375 8.67 35.5795 10.168 37.6375 10.168ZM44.6385 10.168C45.7165 10.168 46.7105 9.832 47.3825 9.188L46.7105 8.222C46.2345 8.698 45.4505 8.964 44.7925 8.964C43.5185 8.964 42.7485 8.124 42.6365 7.102H47.8585V6.752C47.8585 4.624 46.5565 3.07 44.5265 3.07C42.5245 3.07 41.0965 4.652 41.0965 6.612C41.0965 8.754 42.6085 10.168 44.6385 10.168ZM46.4305 6.066H42.6225C42.6925 5.24 43.2665 4.274 44.5265 4.274C45.8565 4.274 46.4025 5.268 46.4305 6.066ZM54.9094 10V5.52C54.9094 3.7 53.5934 3.07 52.0954 3.07C51.0174 3.07 50.0374 3.42 49.2534 4.162L49.8554 5.184C50.4434 4.61 51.1014 4.33 51.8574 4.33C52.7954 4.33 53.4394 4.806 53.4394 5.59V6.598C52.9494 6.024 52.1654 5.73 51.2554 5.73C50.1494 5.73 48.9034 6.374 48.9034 7.928C48.9034 9.426 50.1494 10.168 51.2554 10.168C52.1514 10.168 52.9354 9.846 53.4394 9.272V10H54.9094ZM51.8294 9.16C51.0034 9.16 50.3874 8.684 50.3874 7.956C50.3874 7.214 51.0034 6.738 51.8294 6.738C52.4734 6.738 53.1034 6.976 53.4394 7.438V8.46C53.1034 8.922 52.4734 9.16 51.8294 9.16ZM62.8493 10V5.24C62.8493 3.854 62.1213 3.07 60.6653 3.07C59.6013 3.07 58.7333 3.63 58.2853 4.162V3.238H56.8153V10H58.2853V5.282C58.6213 4.82 59.2653 4.372 60.0213 4.372C60.8473 4.372 61.3793 4.722 61.3793 5.772V10H62.8493Z" fill="white"/>
<path d="M6.986 10V5.24C6.986 3.854 6.258 3.07 4.802 3.07C3.738 3.07 2.87 3.63 2.422 4.162V3.238H0.952V10H2.422V5.282C2.758 4.82 3.402 4.372 4.158 4.372C4.984 4.372 5.516 4.722 5.516 5.772V10H6.986ZM9.62336 2.412C10.1274 2.412 10.5334 2.006 10.5334 1.502C10.5334 0.998 10.1274 0.591999 9.62336 0.591999C9.13336 0.591999 8.71336 0.998 8.71336 1.502C8.71336 2.006 9.13336 2.412 9.62336 2.412ZM10.3654 10V3.238H8.89536V10H10.3654ZM15.3523 10.168C16.6683 10.168 17.4663 9.608 17.9423 8.964L16.9763 8.068C16.5983 8.586 16.0803 8.866 15.4223 8.866C14.1903 8.866 13.3783 7.928 13.3783 6.612C13.3783 5.296 14.1903 4.372 15.4223 4.372C16.0803 4.372 16.5983 4.638 16.9763 5.17L17.9423 4.274C17.4663 3.63 16.6683 3.07 15.3523 3.07C13.2943 3.07 11.8523 4.568 11.8523 6.612C11.8523 8.67 13.2943 10.168 15.3523 10.168ZM25.5593 10L22.6893 6.304L25.5033 3.238H23.6833L20.7013 6.5V0.661999H19.2313V10H20.7013V8.18L21.6393 7.214L23.7113 10H25.5593ZM29.5841 10.168C31.7541 10.168 33.0701 8.558 33.0701 6.612C33.0701 4.68 31.7541 3.07 29.5841 3.07C27.4421 3.07 26.1121 4.68 26.1121 6.612C26.1121 8.558 27.4421 10.168 29.5841 10.168ZM29.5841 8.866C28.3381 8.866 27.6381 7.816 27.6381 6.612C27.6381 5.422 28.3381 4.372 29.5841 4.372C30.8441 4.372 31.5441 5.422 31.5441 6.612C31.5441 7.816 30.8441 8.866 29.5841 8.866ZM37.6375 10.168C38.9535 10.168 39.7515 9.608 40.2275 8.964L39.2615 8.068C38.8835 8.586 38.3655 8.866 37.7075 8.866C36.4755 8.866 35.6635 7.928 35.6635 6.612C35.6635 5.296 36.4755 4.372 37.7075 4.372C38.3655 4.372 38.8835 4.638 39.2615 5.17L40.2275 4.274C39.7515 3.63 38.9535 3.07 37.6375 3.07C35.5795 3.07 34.1375 4.568 34.1375 6.612C34.1375 8.67 35.5795 10.168 37.6375 10.168ZM44.6385 10.168C45.7165 10.168 46.7105 9.832 47.3825 9.188L46.7105 8.222C46.2345 8.698 45.4505 8.964 44.7925 8.964C43.5185 8.964 42.7485 8.124 42.6365 7.102H47.8585V6.752C47.8585 4.624 46.5565 3.07 44.5265 3.07C42.5245 3.07 41.0965 4.652 41.0965 6.612C41.0965 8.754 42.6085 10.168 44.6385 10.168ZM46.4305 6.066H42.6225C42.6925 5.24 43.2665 4.274 44.5265 4.274C45.8565 4.274 46.4025 5.268 46.4305 6.066ZM54.9094 10V5.52C54.9094 3.7 53.5934 3.07 52.0954 3.07C51.0174 3.07 50.0374 3.42 49.2534 4.162L49.8554 5.184C50.4434 4.61 51.1014 4.33 51.8574 4.33C52.7954 4.33 53.4394 4.806 53.4394 5.59V6.598C52.9494 6.024 52.1654 5.73 51.2554 5.73C50.1494 5.73 48.9034 6.374 48.9034 7.928C48.9034 9.426 50.1494 10.168 51.2554 10.168C52.1514 10.168 52.9354 9.846 53.4394 9.272V10H54.9094ZM51.8294 9.16C51.0034 9.16 50.3874 8.684 50.3874 7.956C50.3874 7.214 51.0034 6.738 51.8294 6.738C52.4734 6.738 53.1034 6.976 53.4394 7.438V8.46C53.1034 8.922 52.4734 9.16 51.8294 9.16ZM62.8493 10V5.24C62.8493 3.854 62.1213 3.07 60.6653 3.07C59.6013 3.07 58.7333 3.63 58.2853 4.162V3.238H56.8153V10H58.2853V5.282C58.6213 4.82 59.2653 4.372 60.0213 4.372C60.8473 4.372 61.3793 4.722 61.3793 5.772V10H62.8493Z" fill="url(#paint0_linear_1_87)"/>
<defs>
<linearGradient id="paint0_linear_1_87" x1="-511" y1="209" x2="-132.821" y2="-189.383" gradientUnits="userSpaceOnUse">
<stop stop-color="#2A1C75"/>
<stop offset="1" stop-color="#5639B7"/>
</linearGradient>
</defs>
</svg>
